<svg fill="#313bac" xmlns="http://www.w3.org/2000/svg" version="1.1" viewBox="-5.0 -10.0 110.0 135.0">
 <path d="m7.0312 31.25c5.4453-12.449 16.148-22.086 29.289-26.094-0.66016 0.89844-1.3047 1.8633-1.9219 2.8945-3.4766 5.832-6.2383 13.863-7.8438 23.199zm56.648-26.094c13.141 4.0078 23.844 13.645 29.289 26.094h-19.523c-1.6055-9.3359-4.3672-17.367-7.8438-23.199-0.61719-1.0312-1.2617-1.9961-1.9219-2.8945zm29.289 63.594c-5.4453 12.449-16.148 22.086-29.289 26.094 0.66016-0.89844 1.3047-1.8633 1.9219-2.8945 3.4766-5.832 6.2383-13.863 7.8438-23.199zm-56.648 26.094c-13.141-4.0078-23.844-13.645-29.289-26.094h19.523c1.6055 9.3359 4.3672 17.367 7.8438 23.199 0.61719 1.0312 1.2617 1.9961 1.9219 2.8945zm13.68-91.719c3.9141 0 7.2969 3.2109 10.23 8.1289 3.0312 5.082 5.418 11.984 6.8867 19.996h-34.234c1.4688-8.0117 3.8555-14.914 6.8867-19.996 2.9336-4.918 6.3164-8.1289 10.23-8.1289zm0 93.75c-3.9141 0-7.2969-3.2109-10.23-8.1289-3.0312-5.082-5.418-11.984-6.8867-19.996h34.234c-1.4688 8.0117-3.8555 14.914-6.8867 19.996-2.9336 4.918-6.3164 8.1289-10.23 8.1289zm45.188-59.375c1.1016 3.9805 1.6875 8.1719 1.6875 12.5s-0.58594 8.5195-1.6875 12.5h-20.863c0.44141-4.0039 0.67578-8.1914 0.67578-12.5s-0.23438-8.4961-0.67578-12.5zm-90.375 25c-1.1016-3.9805-1.6875-8.1719-1.6875-12.5s0.58594-8.5195 1.6875-12.5h20.863c-0.44141 4.0039-0.67578 8.1914-0.67578 12.5s0.23438 8.4961 0.67578 12.5zm63.23 0h-36.086c-0.46484-3.9883-0.70703-8.1797-0.70703-12.5s0.24219-8.5117 0.70703-12.5h36.086c0.46484 3.9883 0.70703 8.1797 0.70703 12.5s-0.24219 8.5117-0.70703 12.5z" fill-rule="evenodd"/>
<text x="0.0" y="117.5" font-size="5.0" font-weight="bold" font-family="Arbeit Regular, Helvetica, Arial-Unicode, Arial, Sans-serif" fill="#000000"></text><text x="0.0" y="122.5" font-size="5.0" font-weight="bold" font-family="Arbeit Regular, Helvetica, Arial-Unicode, Arial, Sans-serif" fill="#000000"></text></svg>