<svg xmlns="http://www.w3.org/2000/svg" xmlns:xlink="http://www.w3.org/1999/xlink" version="1.1" x="0px" y="0px" viewBox="0 0 70 87.5" style="enable-background:new 0 0 70 70;" xml:space="preserve"><g><path d="M51.07,3H18.93c-2.21,0-4,1.79-4,4v56c0,2.21,1.79,4,4,4h32.14c2.21,0,4-1.79,4-4V7C55.07,4.79,53.28,3,51.07,3z M23.93,8   h6.42L19.93,18.42V12C19.93,9.79,21.72,8,23.93,8z M35,61.88c-1.65,0-3-1.34-3-3s1.35-3,3-3c1.66,0,3,1.34,3,3   S36.66,61.88,35,61.88z M50.07,46.76c0,2.21-1.79,4-4,4H23.93c-2.21,0-4-1.79-4-4V26.7L38.63,8h7.44c2.21,0,4,1.79,4,4V46.76z"/></g><text x="0" y="85" fill="#000000" font-size="5px" font-weight="bold" font-family="'Helvetica Neue', Helvetica, Arial-Unicode, Arial, Sans-serif"></text><text x="0" y="90" fill="#000000" font-size="5px" font-weight="bold" font-family="'Helvetica Neue', Helvetica, Arial-Unicode, Arial, Sans-serif"></text></svg>