<svg fill="#0d1117" xmlns="http://www.w3.org/2000/svg" xmlns:xlink="http://www.w3.org/1999/xlink" version="1.1" x="0px" y="0px" viewBox="0 0 100 125" enable-background="new 0 0 100 100" xml:space="preserve"><g><g><g><path d="M77.4,19.8H21.8c-1.4,0-2.5,1.1-2.5,2.5v39.8c0,1.4,1.1,2.5,2.5,2.5h55.5c1.4,0,2.5-1.1,2.5-2.5V22.3     C79.8,20.9,78.7,19.8,77.4,19.8z M75.9,58.9c0,1.1-0.9,2-1.9,2H25.2c-1.1,0-1.9-0.9-1.9-2V25.4c0-1.1,0.9-2,1.9-2H74     c1.1,0,1.9,0.9,1.9,2V58.9z"/></g><g><rect x="7.2" y="77" width="85.5" height="3.3"/></g><g><path d="M79.3,65.9h-60L7.2,76h85.5L79.3,65.9z M42,74.8l2.4-2.1h10.8l2.6,2.1H42z M20,72.1l5.1-4.5h48.3l5.7,4.5H20z"/></g></g><g><g><g><path d="M63.6,49.1L63.6,49.1c0,0.5-0.4,0.9-0.9,0.9H44.2c-0.4,0-0.7-0.3-0.8-0.6l-5.1-18c-0.1-0.4-0.5-0.6-0.8-0.6h-2.2      c-0.5,0-0.9-0.4-0.9-0.9v0c0-0.5,0.4-0.9,0.9-0.9h3.4c0.4,0,0.7,0.3,0.8,0.6l5.1,18c0.1,0.4,0.5,0.6,0.8,0.6h17.3      C63.2,48.2,63.6,48.6,63.6,49.1z"/></g></g><g><g><line x1="39.3" y1="29" x2="39.3" y2="29"/></g></g><g><g><path d="M47.5,57.5c-1.9,0-3.5-1.6-3.5-3.5c0-1.9,1.6-3.5,3.5-3.5c1.9,0,3.5,1.6,3.5,3.5C51,55.9,49.4,57.5,47.5,57.5z       M47.5,52.3c-0.9,0-1.7,0.8-1.7,1.7c0,0.9,0.8,1.7,1.7,1.7c0.9,0,1.7-0.8,1.7-1.7C49.2,53.1,48.4,52.3,47.5,52.3z"/></g></g><g><g><path d="M59.6,57.5c-1.9,0-3.5-1.6-3.5-3.5c0-1.9,1.6-3.5,3.5-3.5c1.9,0,3.5,1.6,3.5,3.5C63.1,55.9,61.5,57.5,59.6,57.5z       M59.6,52.3c-0.9,0-1.7,0.8-1.7,1.7c0,0.9,0.8,1.7,1.7,1.7c0.9,0,1.7-0.8,1.7-1.7C61.3,53.1,60.5,52.3,59.6,52.3z"/></g></g><g><path d="M54.3,33.3h-1.6H41.4l3.8,14.1h16.7l3.8-14.1H54.3z M49.6,37.7l-2,5.8c-0.1,0.3-0.5,0.5-0.9,0.4     c-0.3-0.1-0.5-0.5-0.4-0.9l2-5.8c0.1-0.3,0.5-0.5,0.9-0.4C49.5,36.9,49.7,37.3,49.6,37.7z M53.8,37.7l-2,5.8     c-0.1,0.3-0.5,0.5-0.9,0.4h0c-0.3-0.1-0.5-0.5-0.4-0.9l2-5.8c0.1-0.3,0.5-0.5,0.9-0.4C53.7,36.9,53.9,37.3,53.8,37.7z M58,37.7     l-2,5.8c-0.1,0.3-0.5,0.5-0.9,0.4h0c-0.3-0.1-0.5-0.5-0.4-0.9l2-5.8c0.1-0.3,0.5-0.5,0.9-0.4C57.9,36.9,58.1,37.3,58,37.7z      M60.1,43.5c-0.1,0.3-0.5,0.5-0.9,0.4c-0.3-0.1-0.5-0.5-0.4-0.9l2-5.8c0.1-0.3,0.5-0.5,0.9-0.4c0.3,0.1,0.5,0.5,0.4,0.9     L60.1,43.5z"/></g></g></g><text x="0" y="115" fill="#e6edf3" font-size="5px" font-weight="bold" font-family="'Helvetica Neue', Helvetica, Arial-Unicode, Arial, Sans-serif"></text><text x="0" y="120" fill="#0d1117" font-size="5px" font-weight="bold" font-family="'Helvetica Neue', Helvetica, Arial-Unicode, Arial, Sans-serif"></text></svg>