<svg xmlns="http://www.w3.org/2000/svg" version="1.1" viewBox="-5.0 -10.0 110.0 135.0">
 <path d="m82 40.5h-6.1992c-0.30078-0.69922-0.5-1.3984-0.80078-2l4.3984-4.3984c0.80078-0.80078 1.1992-1.8008 1.1992-2.8008 0-1.1016-0.39844-2.1016-1.1992-2.8008l-7.8008-7.8008c-1.5-1.5-4.1992-1.5-5.6992 0l-4.3984 4.3008c-0.69922-0.30078-1.3008-0.60156-2-0.80078v-6.1992c0-2.1992-1.8008-4-4-4h-11c-2.1992 0-4 1.8008-4 4v6.1992c-0.69922 0.30078-1.3984 0.5-2 0.80078l-4.3984-4.3984c-1.5-1.5-4.1992-1.5-5.6992 0l-7.8008 7.8008c-0.80078 0.80078-1.1992 1.8008-1.1992 2.8008 0 1.1016 0.39844 2.1016 1.1992 2.8008l4.3984 4.3984c-0.30078 0.69922-0.60156 1.3008-0.80078 2l-6.1992-0.003906c-2.1992 0-4 1.8008-4 4v11c0 2.1992 1.8008 4 4 4h6.1992c0.30078 0.69922 0.5 1.3984 0.80078 2l-4.3984 4.3984c-0.80078 0.80078-1.1992 1.8008-1.1992 2.8008s0.39844 2.1016 1.1992 2.8008l7.8008 7.8008c1.5 1.5 4.1992 1.5 5.6992 0l4.3984-4.3984c0.69922 0.30078 1.3008 0.60156 2 0.80078v6.3984c0 2.1992 1.8008 4 4 4h11c2.1992 0 4-1.8008 4-4v-6.1992c0.69922-0.30078 1.3984-0.5 2-0.80078l4.3984 4.3984c1.5 1.5 4.1992 1.5 5.6992 0l7.8008-7.8008c0.80078-0.80078 1.1992-1.8008 1.1992-2.8008s-0.39844-2.1016-1.1992-2.8008l-4.3984-4.4961c0.30078-0.69922 0.60156-1.3008 0.80078-2h6.1992c2.1992 0 4-1.8008 4-4v-11c0-2.1992-1.8008-4-4-4zm-32 24c-8 0-14.5-6.5-14.5-14.5s6.5-14.5 14.5-14.5 14.5 6.5 14.5 14.5-6.5 14.5-14.5 14.5z"/>
<text x="0.0" y="117.5" font-size="5.0" font-weight="bold" font-family="Arbeit Regular, Helvetica, Arial-Unicode, Arial, Sans-serif" fill="#000000"></text><text x="0.0" y="122.5" font-size="5.0" font-weight="bold" font-family="Arbeit Regular, Helvetica, Arial-Unicode, Arial, Sans-serif" fill="#000000"></text></svg>