<svg fill="#0d1117" xmlns="http://www.w3.org/2000/svg" xmlns:xlink="http://www.w3.org/1999/xlink" version="1.1" x="0px" y="0px" viewBox="0 0 100 125" enable-background="new 0 0 100 100" xml:space="preserve"><g><g><g><path d="M77.4,19.8H21.8c-1.4,0-2.5,1.1-2.5,2.5v39.8c0,1.4,1.1,2.5,2.5,2.5h55.5c1.4,0,2.5-1.1,2.5-2.5V22.3     C79.8,20.9,78.7,19.8,77.4,19.8z M75.9,58.9c0,1.1-0.9,2-1.9,2H25.2c-1.1,0-1.9-0.9-1.9-2V25.4c0-1.1,0.9-2,1.9-2H74     c1.1,0,1.9,0.9,1.9,2V58.9z"/></g><g><rect x="7.2" y="77" width="85.5" height="3.3"/></g><g><path d="M79.3,65.9h-60L7.2,76h85.5L79.3,65.9z M42,74.8l2.4-2.1h10.8l2.6,2.1H42z M20,72.1l5.1-4.5h48.3l5.7,4.5H20z"/></g></g><g><path d="M50,26.3c-8.8,0-15.9,7.1-15.9,15.9S41.2,58.1,50,58.1c8.8,0,15.9-7.1,15.9-15.9S58.8,26.3,50,26.3z M42.8,31.1    c1.4-0.3,2.7-0.4,4-0.4c5.6,0,8.5,2.9,10.6,6l1.2-0.6c0.1-0.1,0.3-0.1,0.4,0c0.1,0.1,0.2,0.2,0.1,0.4l-0.8,4.2    c0,0.1-0.1,0.2-0.2,0.2c-0.1,0.1-0.2,0.1-0.4,0l-4.2-1.7c-0.1-0.1-0.2-0.1-0.2-0.3s0.1-0.3,0.2-0.3l1.3-0.6    c-3.4-6.8-11.5-6.3-11.9-6.3c-0.2,0-0.4-0.1-0.4-0.3C42.4,31.3,42.6,31.1,42.8,31.1z M58.8,53.2c-1.4,0.3-2.7,0.4-4,0.4    c-5.6,0-8.5-2.9-10.6-6l-1.2,0.7c-0.1,0.1-0.3,0.1-0.4,0s-0.2-0.2-0.1-0.4l0.8-4.2c0-0.1,0.1-0.2,0.2-0.2c0.1-0.1,0.2-0.1,0.4,0    l4.2,1.7c0.1,0.1,0.2,0.1,0.2,0.3c0,0.1-0.1,0.3-0.2,0.3l-1.3,0.6c3.4,6.8,11.5,6.3,11.9,6.3c0.2,0,0.4,0.1,0.4,0.3    C59.2,53,59,53.2,58.8,53.2z"/></g></g><text x="0" y="115" fill="#000000" font-size="5px" font-weight="bold" font-family="'Helvetica Neue', Helvetica, Arial-Unicode, Arial, Sans-serif"></text><text x="0" y="120" fill="#000000" font-size="5px" font-weight="bold" font-family="'Helvetica Neue', Helvetica, Arial-Unicode, Arial, Sans-serif"></text></svg>