<svg fill="#e6edf3" xmlns="http://www.w3.org/2000/svg" version="1.1" viewBox="-5.0 -10.0 110.0 135.0">
 <path d="m81.707 75.48-16.57-16.59c7.4336-10.445 6.4961-25.012-2.8672-34.387-10.438-10.453-27.336-10.453-37.777 0-10.438 10.453-10.438 27.371 0 37.82 9.3633 9.375 23.914 10.312 34.348 2.8672l16.57 16.59c4.4375 4.4414 11.004-1.5898 6.2969-6.3008zm-50.906-19.465c-6.9492-6.9609-6.9492-18.238 0-25.199 6.9492-6.9609 18.215-6.9609 25.168 0 6.9492 6.9609 6.9492 18.238 0 25.199-6.9531 6.957-18.219 6.957-25.168 0z"/>
<text x="0.0" y="117.5" font-size="5.0" font-weight="bold" font-family="Arbeit Regular, Helvetica, Arial-Unicode, Arial, Sans-serif" fill="#e6edf3"></text><text x="0.0" y="122.5" font-size="5.0" font-weight="bold" font-family="Arbeit Regular, Helvetica, Arial-Unicode, Arial, Sans-serif" fill="#e6edf3"></text></svg>