<svg fill="#e6edf3" xmlns="http://www.w3.org/2000/svg" version="1.1" viewBox="-5.0 -10.0 110.0 135.0">
 <g>
  <path d="m28.609 43.875h-9.1875c-0.57812 0-1.0625 0.46875-1.0625 1.0625v27.844c0 0.57812 0.48438 1.0625 1.0625 1.0625h9.1875c0.59375 0 1.0625-0.48438 1.0625-1.0625v-27.844c0-0.59375-0.46875-1.0625-1.0625-1.0625z"/>
  <path d="m9.2031 53.109v11.5c0 1.9219 1.5625 3.4844 3.4844 3.4844h2.5469v-18.484h-2.5469c-1.9219 0-3.4844 1.5781-3.4844 3.5z"/>
  <path d="m71.391 43.875c-0.59375 0-1.0625 0.46875-1.0625 1.0625v27.844c0 0.57812 0.46875 1.0625 1.0625 1.0625h9.1875c0.57812 0 1.0625-0.48438 1.0625-1.0625v-27.844c0-0.59375-0.48438-1.0625-1.0625-1.0625z"/>
  <path d="m87.312 49.609h-2.5469v18.484h2.5469c1.9219 0 3.4844-1.5625 3.4844-3.4844v-11.5c0-1.9219-1.5625-3.5-3.4844-3.5z"/>
  <path d="m18.359 37.891c0-17.453 14.188-31.641 31.641-31.641s31.641 14.188 31.641 31.641v3c1.7969 0.46875 3.125 2.0938 3.125 4.0469v-7.0469c0-19.172-15.594-34.766-34.766-34.766s-34.766 15.594-34.766 34.766v7.0469c0-1.9531 1.3281-3.5781 3.125-4.0469z"/>
  <path d="m81.625 76.828c-0.17188 7.2656-6.125 13.109-13.438 13.109h-8.6406c-0.5625-2.0469-2.4375-3.5625-4.6719-3.5625h-3.0781c-2.6562 0-4.8281 2.1719-4.8281 4.8438v0.57812c0 2.6719 2.1719 4.8438 4.8281 4.8438h3.0781c2.2344 0 4.1094-1.5156 4.6719-3.5781h8.6406c9.1406 0 16.578-7.4375 16.578-16.578v-3.7031c0 1.9531-1.3281 3.5938-3.1406 4.0469z"/>
 </g>
<text x="0.0" y="117.5" font-size="5.0" font-weight="bold" font-family="Arbeit Regular, Helvetica, Arial-Unicode, Arial, Sans-serif" fill="#000000"></text><text x="0.0" y="122.5" font-size="5.0" font-weight="bold" font-family="Arbeit Regular, Helvetica, Arial-Unicode, Arial, Sans-serif" fill="#000000"></text></svg>