<svg fill="#e6edf3" xmlns="http://www.w3.org/2000/svg" xmlns:xlink="http://www.w3.org/1999/xlink" version="1.1" x="0px" y="0px" viewBox="0 0 100 125" enable-background="new 0 0 100 100" xml:space="preserve"><g><g><g><path d="M77.4,19.8H21.8c-1.4,0-2.5,1.1-2.5,2.5v39.8c0,1.4,1.1,2.5,2.5,2.5h55.5c1.4,0,2.5-1.1,2.5-2.5V22.3     C79.8,20.9,78.7,19.8,77.4,19.8z M75.9,58.9c0,1.1-0.9,2-1.9,2H25.2c-1.1,0-1.9-0.9-1.9-2V25.4c0-1.1,0.9-2,1.9-2H74     c1.1,0,1.9,0.9,1.9,2V58.9z"/></g><g><rect x="7.2" y="77" width="85.5" height="3.3"/></g><g><path d="M79.3,65.9h-60L7.2,76h85.5L79.3,65.9z M42,74.8l2.4-2.1h10.8l2.6,2.1H42z M20,72.1l5.1-4.5h48.3l5.7,4.5H20z"/></g></g><g><g><g><g><g><path d="M41.9,40.1c0,2.2-1.8,4.1-4.1,4.1c-2.2,0-4.1-1.8-4.1-4.1H41.9z"/></g></g><g><g><path d="M50,40.1c0,2.2-1.8,4.1-4.1,4.1c-2.2,0-4.1-1.8-4.1-4.1H50z"/></g></g><g><g><path d="M58.1,40.1c0,2.2-1.8,4.1-4.1,4.1c-2.2,0-4.1-1.8-4.1-4.1H58.1z"/></g></g><g><g><path d="M66.2,40.1c0,2.2-1.8,4.1-4.1,4.1c-2.2,0-4.1-1.8-4.1-4.1H66.2z"/></g></g></g><g><g><polygon points="66.2,39.2 33.8,39.2 36.6,27.5 63.4,27.5      "/></g></g><g><g><polygon points="63.6,57.2 36.4,57.2 36.4,41.1 37.6,41.1 37.6,56 62.4,56 62.4,41.1 63.6,41.1      "/></g></g><g><g><rect x="53.5" y="42.2" width="1.2" height="14.4"/></g></g><g><g><rect x="55.6" y="46.9" width="0.9" height="3.5"/></g></g></g><g><g><rect x="41.8" y="47.8" transform="matrix(0.7071 -0.7071 0.7071 0.7071 -23.5253 44.6392)" width="0.7" height="5.9"/></g></g><g><g><rect x="44.1" y="45.2" transform="matrix(0.7071 -0.7071 0.7071 0.7071 -22.0421 45.9619)" width="0.7" height="8.7"/></g></g><g><g><rect x="46.5" y="45.5" transform="matrix(0.7071 -0.7071 0.7071 0.7071 -20.509 47.3053)" width="0.8" height="5.9"/></g></g></g></g><text x="0" y="115" fill="#fff" font-size="5px" font-weight="bold" font-family="'Helvetica Neue', Helvetica, Arial-Unicode, Arial, Sans-serif"></text><text x="0" y="120" fill="#fff" font-size="5px" font-weight="bold" font-family="'Helvetica Neue', Helvetica, Arial-Unicode, Arial, Sans-serif"></text></svg>