<svg fill="#e6edf3" xmlns="http://www.w3.org/2000/svg" xmlns:xlink="http://www.w3.org/1999/xlink" version="1.1" x="0px" y="0px" viewBox="0 0 100 125" enable-background="new 0 0 100 100" xml:space="preserve"><g><g><g><path d="M77.4,19.8H21.8c-1.4,0-2.5,1.1-2.5,2.5v39.8c0,1.4,1.1,2.5,2.5,2.5h55.5c1.4,0,2.5-1.1,2.5-2.5V22.3     C79.8,20.9,78.7,19.8,77.4,19.8z M75.9,58.9c0,1.1-0.9,2-1.9,2H25.2c-1.1,0-1.9-0.9-1.9-2V25.4c0-1.1,0.9-2,1.9-2H74     c1.1,0,1.9,0.9,1.9,2V58.9z"/></g><g><rect x="7.2" y="77" width="85.5" height="3.3"/></g><g><path d="M79.3,65.9h-60L7.2,76h85.5L79.3,65.9z M42,74.8l2.4-2.1h10.8l2.6,2.1H42z M20,72.1l5.1-4.5h48.3l5.7,4.5H20z"/></g></g><g><g><path d="M46.4,31.3l1.8-5.2c0.1-0.2,0.2-0.2,0.4-0.2c0.2,0.1,0.2,0.2,0.2,0.4l-1.8,5.2c0,0.1-0.1,0.1-0.2,0.2c-0.1,0-0.2,0-0.2,0     C46.4,31.7,46.3,31.5,46.4,31.3z"/></g><g><path d="M36.3,43.4l-4.9,2.4c-0.2,0.1-0.3,0-0.4-0.1c-0.1-0.2,0-0.3,0.1-0.4l4.9-2.4c0.2-0.1,0.3,0,0.4,0.1     C36.5,43.1,36.4,43.3,36.3,43.4z"/></g><g><path d="M36.1,36.7c0,0.1-0.1,0.1-0.2,0.2c-0.1,0-0.2,0-0.2,0l-5.2-1.8c-0.2-0.1-0.2-0.2-0.2-0.4c0.1-0.2,0.2-0.2,0.4-0.2     l5.2,1.8C36.1,36.4,36.1,36.6,36.1,36.7z"/></g><g><path d="M41.3,47.6l-1.8,5.2c0,0.1-0.1,0.1-0.2,0.2s-0.2,0-0.2,0c-0.2-0.1-0.2-0.2-0.2-0.4l1.8-5.2c0.1-0.2,0.2-0.2,0.4-0.2     C41.2,47.2,41.3,47.4,41.3,47.6z"/></g><g><path d="M40.3,32c-0.2,0.1-0.3,0-0.4-0.1L37.5,27c-0.1-0.2,0-0.3,0.1-0.4c0.2-0.1,0.3,0,0.4,0.1l2.4,4.9     C40.5,31.8,40.4,32,40.3,32z"/></g><g><path d="M69.5,51.7l-1.7,2.8c-0.3,0.6-1.1,0.8-1.6,0.4L59,51l-1.4,7.4L44,39.9c-0.4-0.5,0-1.2,0.7-1.2l23,2.2l-6,5l7.3,4.2     C69.6,50.4,69.8,51.1,69.5,51.7z"/></g></g></g><text x="0" y="115" fill="#000000" font-size="5px" font-weight="bold" font-family="'Helvetica Neue', Helvetica, Arial-Unicode, Arial, Sans-serif"></text><text x="0" y="120" fill="#000000" font-size="5px" font-weight="bold" font-family="'Helvetica Neue', Helvetica, Arial-Unicode, Arial, Sans-serif"></text></svg>